<svg width="627" height="705" xmlns="http://www.w3.org/2000/svg" xmlns:xlink="http://www.w3.org/1999/xlink" overflow="hidden"><defs><clipPath id="clip0"><path d="M47 168 674 168 674 873 47 873Z" fill-rule="evenodd" clip-rule="evenodd"/></clipPath></defs><g clip-path="url(#clip0)" transform="translate(-47 -168)"><path d="M527.52 207.867 527.52 871.067" stroke="#000000" stroke-width="1.33333" stroke-linejoin="round" stroke-miterlimit="10" fill="none" fill-rule="evenodd"/><path d="M47.8133 208.533 672.187 208.533" stroke="#000000" stroke-width="1.33333" stroke-linejoin="round" stroke-miterlimit="10" fill="none" fill-rule="evenodd"/><path d="M47.8133 247.467 672.187 247.467" stroke="#000000" stroke-width="1.33333" stroke-linejoin="round" stroke-miterlimit="10" fill="none" fill-rule="evenodd"/><path d="M47.8133 286.4 672.187 286.4" stroke="#000000" stroke-width="1.33333" stroke-linejoin="round" stroke-miterlimit="10" fill="none" fill-rule="evenodd"/><path d="M47.8133 325.333 672.187 325.333" stroke="#000000" stroke-width="1.33333" stroke-linejoin="round" stroke-miterlimit="10" fill="none" fill-rule="evenodd"/><path d="M47.8133 364.267 672.187 364.267" stroke="#000000" stroke-width="1.33333" stroke-linejoin="round" stroke-miterlimit="10" fill="none" fill-rule="evenodd"/><path d="M47.8133 403.2 672.187 403.2" stroke="#000000" stroke-width="1.33333" stroke-linejoin="round" stroke-miterlimit="10" fill="none" fill-rule="evenodd"/><path d="M47.8133 442.133 672.187 442.133" stroke="#000000" stroke-width="1.33333" stroke-linejoin="round" stroke-miterlimit="10" fill="none" fill-rule="evenodd"/><path d="M47.8133 481.067 528.187 481.067" stroke="#000000" stroke-width="1.33333" stroke-linejoin="round" stroke-miterlimit="10" fill="none" fill-rule="evenodd"/><path d="M47.8133 520 672.187 520" stroke="#000000" stroke-width="1.33333" stroke-linejoin="round" stroke-miterlimit="10" fill="none" fill-rule="evenodd"/><path d="M47.8133 558.933 528.187 558.933" stroke="#000000" stroke-width="1.33333" stroke-linejoin="round" stroke-miterlimit="10" fill="none" fill-rule="evenodd"/><path d="M47.8133 597.867 672.187 597.867" stroke="#000000" stroke-width="1.33333" stroke-linejoin="round" stroke-miterlimit="10" fill="none" fill-rule="evenodd"/><path d="M47.8133 636.8 672.187 636.8" stroke="#000000" stroke-width="1.33333" stroke-linejoin="round" stroke-miterlimit="10" fill="none" fill-rule="evenodd"/><path d="M47.8133 675.733 672.187 675.733" stroke="#000000" stroke-width="1.33333" stroke-linejoin="round" stroke-miterlimit="10" fill="none" fill-rule="evenodd"/><path d="M47.8133 714.667 672.187 714.667" stroke="#000000" stroke-width="1.33333" stroke-linejoin="round" stroke-miterlimit="10" fill="none" fill-rule="evenodd"/><path d="M47.8133 753.6 672.187 753.6" stroke="#000000" stroke-width="1.33333" stroke-linejoin="round" stroke-miterlimit="10" fill="none" fill-rule="evenodd"/><path d="M47.8133 792.533 672.187 792.533" stroke="#000000" stroke-width="1.33333" stroke-linejoin="round" stroke-miterlimit="10" fill="none" fill-rule="evenodd"/><path d="M47.8133 831.467 528.187 831.467" stroke="#000000" stroke-width="1.33333" stroke-linejoin="round" stroke-miterlimit="10" fill="none" fill-rule="evenodd"/><path d="M48.48 168.933 48.48 871.067" stroke="#000000" stroke-width="1.33333" stroke-linejoin="round" stroke-miterlimit="10" fill="none" fill-rule="evenodd"/><path d="M671.52 168.933 671.52 871.067" stroke="#000000" stroke-width="1.33333" stroke-linejoin="round" stroke-miterlimit="10" fill="none" fill-rule="evenodd"/><path d="M47.8133 169.6 672.187 169.6" stroke="#000000" stroke-width="1.33333" stroke-linejoin="round" stroke-miterlimit="10" fill="none" fill-rule="evenodd"/><path d="M47.8133 870.4 672.187 870.4" stroke="#000000" stroke-width="1.33333" stroke-linejoin="round" stroke-miterlimit="10" fill="none" fill-rule="evenodd"/><text font-family="SimHei,SimHei_MSFontService,sans-serif" font-weight="400" font-size="18" transform="translate(310.5 196)">筒音<tspan font-family="SimpMusic Base,SimpMusic Base_MSFontService,sans-serif" x="36" y="0">%</tspan>指法表<tspan font-family="SimpMusic Base,SimpMusic Base_MSFontService,sans-serif" x="284.52" y="38">%</tspan><tspan font-family="SimpMusic Base,SimpMusic Base_MSFontService,sans-serif" x="284.52" y="77">^</tspan><tspan font-family="SimpMusic Base,SimpMusic Base_MSFontService,sans-serif" x="284.52" y="116">&amp;</tspan><tspan font-family="SimpMusic Base,SimpMusic Base_MSFontService,sans-serif" x="284.52" y="155">1</tspan><tspan font-family="SimpMusic Base,SimpMusic Base_MSFontService,sans-serif" x="284.52" y="194">2</tspan><tspan font-family="SimpMusic Base,SimpMusic Base_MSFontService,sans-serif" x="284.52" y="233">3</tspan><tspan font-family="SimpMusic Base,SimpMusic Base_MSFontService,sans-serif" x="284.52" y="291">4</tspan><tspan font-family="SimpMusic Base,SimpMusic Base_MSFontService,sans-serif" x="284.52" y="369">5</tspan><tspan font-family="SimpMusic Base,SimpMusic Base_MSFontService,sans-serif" x="284.52" y="428">6</tspan><tspan font-family="SimpMusic Base,SimpMusic Base_MSFontService,sans-serif" x="284.52" y="466">7</tspan><tspan font-family="SimpMusic Base,SimpMusic Base_MSFontService,sans-serif" x="284.52" y="505">!</tspan><tspan font-family="SimpMusic Base,SimpMusic Base_MSFontService,sans-serif" x="284.52" y="544">@</tspan><tspan font-family="SimpMusic Base,SimpMusic Base_MSFontService,sans-serif" x="284.52" y="583">#</tspan><tspan font-family="SimpMusic Base,SimpMusic Base_MSFontService,sans-serif" x="284.52" y="642">$</tspan></text><path d="M452.855 220C450.566 220 448.71 224.029 448.71 229 448.71 233.971 450.566 238 452.855 238L122.145 238C119.856 238 118 233.971 118 229 118 224.029 119.856 220 122.145 220Z" fill="#FFC000" fill-rule="evenodd"/><path d="M452.855 220C455.144 220 457 224.029 457 229 457 233.971 455.144 238 452.855 238 450.566 238 448.71 233.971 448.71 229 448.71 224.029 450.566 220 452.855 220Z" fill="#FFD966" fill-rule="evenodd"/><path d="M452.855 238C450.566 238 448.71 233.971 448.71 229 448.71 224.029 450.566 220 452.855 220 455.144 220 457 224.029 457 229 457 233.971 455.144 238 452.855 238ZM452.855 238 122.145 238C119.856 238 118 233.971 118 229 118 224.029 119.856 220 122.145 220L452.855 220" stroke="#000000" stroke-width="2" stroke-miterlimit="8" fill="none" fill-rule="evenodd"/><path d="M214 229.5C214 227.567 215.567 226 217.5 226 219.433 226 221 227.567 221 229.5 221 231.433 219.433 233 217.5 233 215.567 233 214 231.433 214 229.5Z" stroke="#000000" stroke-width="2" stroke-miterlimit="8" fill="#FFFFFF" fill-rule="evenodd"/><path d="M291 229.5C291 227.567 292.567 226 294.5 226 296.433 226 298 227.567 298 229.5 298 231.433 296.433 233 294.5 233 292.567 233 291 231.433 291 229.5Z" stroke="#000000" stroke-width="2" stroke-miterlimit="8" fill-rule="evenodd"/><path d="M311 229.5C311 227.567 312.791 226 315 226 317.209 226 319 227.567 319 229.5 319 231.433 317.209 233 315 233 312.791 233 311 231.433 311 229.5Z" stroke="#000000" stroke-width="2" stroke-miterlimit="8" fill-rule="evenodd"/><path d="M329 229.5C329 227.567 330.791 226 333 226 335.209 226 337 227.567 337 229.5 337 231.433 335.209 233 333 233 330.791 233 329 231.433 329 229.5Z" stroke="#000000" stroke-width="2" stroke-miterlimit="8" fill-rule="evenodd"/><path d="M345 229.5C345 227.567 346.567 226 348.5 226 350.433 226 352 227.567 352 229.5 352 231.433 350.433 233 348.5 233 346.567 233 345 231.433 345 229.5Z" stroke="#000000" stroke-width="2" stroke-miterlimit="8" fill-rule="evenodd"/><path d="M361 229.5C361 227.567 362.567 226 364.5 226 366.433 226 368 227.567 368 229.5 368 231.433 366.433 233 364.5 233 362.567 233 361 231.433 361 229.5Z" stroke="#000000" stroke-width="2" stroke-miterlimit="8" fill-rule="evenodd"/><path d="M377 229.5C377 227.567 378.567 226 380.5 226 382.433 226 384 227.567 384 229.5 384 231.433 382.433 233 380.5 233 378.567 233 377 231.433 377 229.5Z" stroke="#000000" stroke-width="2" stroke-miterlimit="8" fill-rule="evenodd"/><path d="M416 229.5C416 227.567 417.567 226 419.5 226 421.433 226 423 227.567 423 229.5 423 231.433 421.433 233 419.5 233 417.567 233 416 231.433 416 229.5Z" stroke="#000000" stroke-width="2" stroke-miterlimit="8" fill="#FFFFFF" fill-rule="evenodd"/><path d="M434 229.5C434 227.567 435.567 226 437.5 226 439.433 226 441 227.567 441 229.5 441 231.433 439.433 233 437.5 233 435.567 233 434 231.433 434 229.5Z" stroke="#000000" stroke-width="2" stroke-miterlimit="8" fill="#FFFFFF" fill-rule="evenodd"/><path d="M452.855 259C450.566 259 448.71 263.03 448.71 268 448.71 272.971 450.566 277 452.855 277L122.145 277C119.856 277 118 272.971 118 268 118 263.03 119.856 259 122.145 259Z" fill="#FFC000" fill-rule="evenodd"/><path d="M452.855 259C455.144 259 457 263.03 457 268 457 272.971 455.144 277 452.855 277 450.566 277 448.71 272.971 448.71 268 448.71 263.03 450.566 259 452.855 259Z" fill="#FFD966" fill-rule="evenodd"/><path d="M452.855 277C450.566 277 448.71 272.971 448.71 268 448.71 263.03 450.566 259 452.855 259 455.144 259 457 263.03 457 268 457 272.971 455.144 277 452.855 277ZM452.855 277 122.145 277C119.856 277 118 272.971 118 268 118 263.03 119.856 259 122.145 259L452.855 259" stroke="#000000" stroke-width="2" stroke-miterlimit="8" fill="none" fill-rule="evenodd"/><path d="M214 268C214 265.791 215.567 264 217.5 264 219.433 264 221 265.791 221 268 221 270.209 219.433 272 217.5 272 215.567 272 214 270.209 214 268Z" stroke="#000000" stroke-width="2" stroke-miterlimit="8" fill="#FFFFFF" fill-rule="evenodd"/><path d="M291 268C291 265.791 292.567 264 294.5 264 296.433 264 298 265.791 298 268 298 270.209 296.433 272 294.5 272 292.567 272 291 270.209 291 268Z" stroke="#000000" stroke-width="2" stroke-miterlimit="8" fill-rule="evenodd"/><path d="M311 268C311 265.791 312.791 264 315 264 317.209 264 319 265.791 319 268 319 270.209 317.209 272 315 272 312.791 272 311 270.209 311 268Z" stroke="#000000" stroke-width="2" stroke-miterlimit="8" fill-rule="evenodd"/><path d="M329 268C329 265.791 330.791 264 333 264 335.209 264 337 265.791 337 268 337 270.209 335.209 272 333 272 330.791 272 329 270.209 329 268Z" stroke="#000000" stroke-width="2" stroke-miterlimit="8" fill-rule="evenodd"/><path d="M345 268C345 265.791 346.567 264 348.5 264 350.433 264 352 265.791 352 268 352 270.209 350.433 272 348.5 272 346.567 272 345 270.209 345 268Z" stroke="#000000" stroke-width="2" stroke-miterlimit="8" fill-rule="evenodd"/><path d="M361 268C361 265.791 362.567 264 364.5 264 366.433 264 368 265.791 368 268 368 270.209 366.433 272 364.5 272 362.567 272 361 270.209 361 268Z" stroke="#000000" stroke-width="2" stroke-miterlimit="8" fill-rule="evenodd"/><path d="M377 268C377 265.791 378.567 264 380.5 264 382.433 264 384 265.791 384 268 384 270.209 382.433 272 380.5 272 378.567 272 377 270.209 377 268Z" stroke="#000000" stroke-width="2" stroke-miterlimit="8" fill="#FFFFFF" fill-rule="evenodd"/><path d="M416 268C416 265.791 417.567 264 419.5 264 421.433 264 423 265.791 423 268 423 270.209 421.433 272 419.5 272 417.567 272 416 270.209 416 268Z" stroke="#000000" stroke-width="2" stroke-miterlimit="8" fill="#FFFFFF" fill-rule="evenodd"/><path d="M434 268C434 265.791 435.567 264 437.5 264 439.433 264 441 265.791 441 268 441 270.209 439.433 272 437.5 272 435.567 272 434 270.209 434 268Z" stroke="#000000" stroke-width="2" stroke-miterlimit="8" fill="#FFFFFF" fill-rule="evenodd"/><path d="M452.855 298C450.566 298 448.71 302.03 448.71 307 448.71 311.971 450.566 316 452.855 316L122.145 316C119.856 316 118 311.971 118 307 118 302.03 119.856 298 122.145 298Z" fill="#FFC000" fill-rule="evenodd"/><path d="M452.855 298C455.144 298 457 302.03 457 307 457 311.971 455.144 316 452.855 316 450.566 316 448.71 311.971 448.71 307 448.71 302.03 450.566 298 452.855 298Z" fill="#FFD966" fill-rule="evenodd"/><path d="M452.855 316C450.566 316 448.71 311.971 448.71 307 448.71 302.03 450.566 298 452.855 298 455.144 298 457 302.03 457 307 457 311.971 455.144 316 452.855 316ZM452.855 316 122.145 316C119.856 316 118 311.971 118 307 118 302.03 119.856 298 122.145 298L452.855 298" stroke="#000000" stroke-width="2" stroke-miterlimit="8" fill="none" fill-rule="evenodd"/><path d="M214 306.5C214 304.567 215.567 303 217.5 303 219.433 303 221 304.567 221 306.5 221 308.433 219.433 310 217.5 310 215.567 310 214 308.433 214 306.5Z" stroke="#000000" stroke-width="2" stroke-miterlimit="8" fill="#FFFFFF" fill-rule="evenodd"/><path d="M291 306.5C291 304.567 292.567 303 294.5 303 296.433 303 298 304.567 298 306.5 298 308.433 296.433 310 294.5 310 292.567 310 291 308.433 291 306.5Z" stroke="#000000" stroke-width="2" stroke-miterlimit="8" fill-rule="evenodd"/><path d="M311 306.5C311 304.567 312.791 303 315 303 317.209 303 319 304.567 319 306.5 319 308.433 317.209 310 315 310 312.791 310 311 308.433 311 306.5Z" stroke="#000000" stroke-width="2" stroke-miterlimit="8" fill-rule="evenodd"/><path d="M329 306.5C329 304.567 330.791 303 333 303 335.209 303 337 304.567 337 306.5 337 308.433 335.209 310 333 310 330.791 310 329 308.433 329 306.5Z" stroke="#000000" stroke-width="2" stroke-miterlimit="8" fill-rule="evenodd"/><path d="M345 306.5C345 304.567 346.567 303 348.5 303 350.433 303 352 304.567 352 306.5 352 308.433 350.433 310 348.5 310 346.567 310 345 308.433 345 306.5Z" stroke="#000000" stroke-width="2" stroke-miterlimit="8" fill-rule="evenodd"/><path d="M361 306.5C361 304.567 362.567 303 364.5 303 366.433 303 368 304.567 368 306.5 368 308.433 366.433 310 364.5 310 362.567 310 361 308.433 361 306.5Z" stroke="#000000" stroke-width="2" stroke-miterlimit="8" fill="#FFFFFF" fill-rule="evenodd"/><path d="M377 306.5C377 304.567 378.567 303 380.5 303 382.433 303 384 304.567 384 306.5 384 308.433 382.433 310 380.5 310 378.567 310 377 308.433 377 306.5Z" stroke="#000000" stroke-width="2" stroke-miterlimit="8" fill="#FFFFFF" fill-rule="evenodd"/><path d="M416 306.5C416 304.567 417.567 303 419.5 303 421.433 303 423 304.567 423 306.5 423 308.433 421.433 310 419.5 310 417.567 310 416 308.433 416 306.5Z" stroke="#000000" stroke-width="2" stroke-miterlimit="8" fill="#FFFFFF" fill-rule="evenodd"/><path d="M434 306.5C434 304.567 435.567 303 437.5 303 439.433 303 441 304.567 441 306.5 441 308.433 439.433 310 437.5 310 435.567 310 434 308.433 434 306.5Z" stroke="#000000" stroke-width="2" stroke-miterlimit="8" fill="#FFFFFF" fill-rule="evenodd"/><path d="M452.855 336C450.566 336 448.71 340.03 448.71 345 448.71 349.971 450.566 354 452.855 354L122.145 354C119.856 354 118 349.971 118 345 118 340.03 119.856 336 122.145 336Z" fill="#FFC000" fill-rule="evenodd"/><path d="M452.855 336C455.144 336 457 340.03 457 345 457 349.971 455.144 354 452.855 354 450.566 354 448.71 349.971 448.71 345 448.71 340.03 450.566 336 452.855 336Z" fill="#FFD966" fill-rule="evenodd"/><path d="M452.855 354C450.566 354 448.71 349.971 448.71 345 448.71 340.03 450.566 336 452.855 336 455.144 336 457 340.03 457 345 457 349.971 455.144 354 452.855 354ZM452.855 354 122.145 354C119.856 354 118 349.971 118 345 118 340.03 119.856 336 122.145 336L452.855 336" stroke="#000000" stroke-width="2" stroke-miterlimit="8" fill="none" fill-rule="evenodd"/><path d="M214 345.5C214 343.567 215.567 342 217.5 342 219.433 342 221 343.567 221 345.5 221 347.433 219.433 349 217.5 349 215.567 349 214 347.433 214 345.5Z" stroke="#000000" stroke-width="2" stroke-miterlimit="8" fill="#FFFFFF" fill-rule="evenodd"/><path d="M291 345.5C291 343.567 292.567 342 294.5 342 296.433 342 298 343.567 298 345.5 298 347.433 296.433 349 294.5 349 292.567 349 291 347.433 291 345.5Z" stroke="#000000" stroke-width="2" stroke-miterlimit="8" fill-rule="evenodd"/><path d="M311 345.5C311 343.567 312.791 342 315 342 317.209 342 319 343.567 319 345.5 319 347.433 317.209 349 315 349 312.791 349 311 347.433 311 345.5Z" stroke="#000000" stroke-width="2" stroke-miterlimit="8" fill-rule="evenodd"/><path d="M329 345.5C329 343.567 330.791 342 333 342 335.209 342 337 343.567 337 345.5 337 347.433 335.209 349 333 349 330.791 349 329 347.433 329 345.5Z" stroke="#000000" stroke-width="2" stroke-miterlimit="8" fill-rule="evenodd"/><path d="M345 345.5C345 343.567 346.567 342 348.5 342 350.433 342 352 343.567 352 345.5 352 347.433 350.433 349 348.5 349 346.567 349 345 347.433 345 345.5Z" stroke="#000000" stroke-width="2" stroke-miterlimit="8" fill="#FFFFFF" fill-rule="evenodd"/><path d="M361 345.5C361 343.567 362.567 342 364.5 342 366.433 342 368 343.567 368 345.5 368 347.433 366.433 349 364.5 349 362.567 349 361 347.433 361 345.5Z" stroke="#000000" stroke-width="2" stroke-miterlimit="8" fill="#FFFFFF" fill-rule="evenodd"/><path d="M377 345.5C377 343.567 378.567 342 380.5 342 382.433 342 384 343.567 384 345.5 384 347.433 382.433 349 380.5 349 378.567 349 377 347.433 377 345.5Z" stroke="#000000" stroke-width="2" stroke-miterlimit="8" fill="#FFFFFF" fill-rule="evenodd"/><path d="M416 345.5C416 343.567 417.567 342 419.5 342 421.433 342 423 343.567 423 345.5 423 347.433 421.433 349 419.5 349 417.567 349 416 347.433 416 345.5Z" stroke="#000000" stroke-width="2" stroke-miterlimit="8" fill="#FFFFFF" fill-rule="evenodd"/><path d="M434 345.5C434 343.567 435.567 342 437.5 342 439.433 342 441 343.567 441 345.5 441 347.433 439.433 349 437.5 349 435.567 349 434 347.433 434 345.5Z" stroke="#000000" stroke-width="2" stroke-miterlimit="8" fill="#FFFFFF" fill-rule="evenodd"/><path d="M452.855 376C450.566 376 448.71 380.03 448.71 385 448.71 389.971 450.566 394 452.855 394L122.145 394C119.856 394 118 389.971 118 385 118 380.03 119.856 376 122.145 376Z" fill="#FFC000" fill-rule="evenodd"/><path d="M452.855 376C455.144 376 457 380.03 457 385 457 389.971 455.144 394 452.855 394 450.566 394 448.71 389.971 448.71 385 448.71 380.03 450.566 376 452.855 376Z" fill="#FFD966" fill-rule="evenodd"/><path d="M452.855 394C450.566 394 448.71 389.971 448.71 385 448.71 380.03 450.566 376 452.855 376 455.144 376 457 380.03 457 385 457 389.971 455.144 394 452.855 394ZM452.855 394 122.145 394C119.856 394 118 389.971 118 385 118 380.03 119.856 376 122.145 376L452.855 376" stroke="#000000" stroke-width="2" stroke-miterlimit="8" fill="none" fill-rule="evenodd"/><path d="M214 384.5C214 382.567 215.567 381 217.5 381 219.433 381 221 382.567 221 384.5 221 386.433 219.433 388 217.5 388 215.567 388 214 386.433 214 384.5Z" stroke="#000000" stroke-width="2" stroke-miterlimit="8" fill="#FFFFFF" fill-rule="evenodd"/><path d="M291 384.5C291 382.567 292.567 381 294.5 381 296.433 381 298 382.567 298 384.5 298 386.433 296.433 388 294.5 388 292.567 388 291 386.433 291 384.5Z" stroke="#000000" stroke-width="2" stroke-miterlimit="8" fill-rule="evenodd"/><path d="M311 384.5C311 382.567 312.791 381 315 381 317.209 381 319 382.567 319 384.5 319 386.433 317.209 388 315 388 312.791 388 311 386.433 311 384.5Z" stroke="#000000" stroke-width="2" stroke-miterlimit="8" fill-rule="evenodd"/><path d="M329 384.5C329 382.567 330.791 381 333 381 335.209 381 337 382.567 337 384.5 337 386.433 335.209 388 333 388 330.791 388 329 386.433 329 384.5Z" stroke="#000000" stroke-width="2" stroke-miterlimit="8" fill="#FFFFFF" fill-rule="evenodd"/><path d="M345 384.5C345 382.567 346.567 381 348.5 381 350.433 381 352 382.567 352 384.5 352 386.433 350.433 388 348.5 388 346.567 388 345 386.433 345 384.5Z" stroke="#000000" stroke-width="2" stroke-miterlimit="8" fill="#FFFFFF" fill-rule="evenodd"/><path d="M361 384.5C361 382.567 362.567 381 364.5 381 366.433 381 368 382.567 368 384.5 368 386.433 366.433 388 364.5 388 362.567 388 361 386.433 361 384.5Z" stroke="#000000" stroke-width="2" stroke-miterlimit="8" fill="#FFFFFF" fill-rule="evenodd"/><path d="M377 384.5C377 382.567 378.567 381 380.5 381 382.433 381 384 382.567 384 384.5 384 386.433 382.433 388 380.5 388 378.567 388 377 386.433 377 384.5Z" stroke="#000000" stroke-width="2" stroke-miterlimit="8" fill="#FFFFFF" fill-rule="evenodd"/><path d="M416 384.5C416 382.567 417.567 381 419.5 381 421.433 381 423 382.567 423 384.5 423 386.433 421.433 388 419.5 388 417.567 388 416 386.433 416 384.5Z" stroke="#000000" stroke-width="2" stroke-miterlimit="8" fill="#FFFFFF" fill-rule="evenodd"/><path d="M434 384.5C434 382.567 435.567 381 437.5 381 439.433 381 441 382.567 441 384.5 441 386.433 439.433 388 437.5 388 435.567 388 434 386.433 434 384.5Z" stroke="#000000" stroke-width="2" stroke-miterlimit="8" fill="#FFFFFF" fill-rule="evenodd"/><path d="M452.855 415C450.566 415 448.71 419.03 448.71 424 448.71 428.971 450.566 433 452.855 433L122.145 433C119.856 433 118 428.971 118 424 118 419.03 119.856 415 122.145 415Z" fill="#FFC000" fill-rule="evenodd"/><path d="M452.855 415C455.144 415 457 419.03 457 424 457 428.971 455.144 433 452.855 433 450.566 433 448.71 428.971 448.71 424 448.71 419.03 450.566 415 452.855 415Z" fill="#FFD966" fill-rule="evenodd"/><path d="M452.855 433C450.566 433 448.71 428.971 448.71 424 448.71 419.03 450.566 415 452.855 415 455.144 415 457 419.03 457 424 457 428.971 455.144 433 452.855 433ZM452.855 433 122.145 433C119.856 433 118 428.971 118 424 118 419.03 119.856 415 122.145 415L452.855 415" stroke="#000000" stroke-width="2" stroke-miterlimit="8" fill="none" fill-rule="evenodd"/><path d="M214 424.5C214 422.567 215.567 421 217.5 421 219.433 421 221 422.567 221 424.5 221 426.433 219.433 428 217.5 428 215.567 428 214 426.433 214 424.5Z" stroke="#000000" stroke-width="2" stroke-miterlimit="8" fill="#FFFFFF" fill-rule="evenodd"/><path d="M291 424.5C291 422.567 292.567 421 294.5 421 296.433 421 298 422.567 298 424.5 298 426.433 296.433 428 294.5 428 292.567 428 291 426.433 291 424.5Z" stroke="#000000" stroke-width="2" stroke-miterlimit="8" fill-rule="evenodd"/><path d="M311 424.5C311 422.567 312.791 421 315 421 317.209 421 319 422.567 319 424.5 319 426.433 317.209 428 315 428 312.791 428 311 426.433 311 424.5Z" stroke="#000000" stroke-width="2" stroke-miterlimit="8" fill="#FFFFFF" fill-rule="evenodd"/><path d="M329 424.5C329 422.567 330.791 421 333 421 335.209 421 337 422.567 337 424.5 337 426.433 335.209 428 333 428 330.791 428 329 426.433 329 424.5Z" stroke="#000000" stroke-width="2" stroke-miterlimit="8" fill="#FFFFFF" fill-rule="evenodd"/><path d="M345 424.5C345 422.567 346.567 421 348.5 421 350.433 421 352 422.567 352 424.5 352 426.433 350.433 428 348.5 428 346.567 428 345 426.433 345 424.5Z" stroke="#000000" stroke-width="2" stroke-miterlimit="8" fill="#FFFFFF" fill-rule="evenodd"/><path d="M361 424.5C361 422.567 362.567 421 364.5 421 366.433 421 368 422.567 368 424.5 368 426.433 366.433 428 364.5 428 362.567 428 361 426.433 361 424.5Z" stroke="#000000" stroke-width="2" stroke-miterlimit="8" fill="#FFFFFF" fill-rule="evenodd"/><path d="M377 424.5C377 422.567 378.567 421 380.5 421 382.433 421 384 422.567 384 424.5 384 426.433 382.433 428 380.5 428 378.567 428 377 426.433 377 424.5Z" stroke="#000000" stroke-width="2" stroke-miterlimit="8" fill="#FFFFFF" fill-rule="evenodd"/><path d="M416 424.5C416 422.567 417.567 421 419.5 421 421.433 421 423 422.567 423 424.5 423 426.433 421.433 428 419.5 428 417.567 428 416 426.433 416 424.5Z" stroke="#000000" stroke-width="2" stroke-miterlimit="8" fill="#FFFFFF" fill-rule="evenodd"/><path d="M434 424.5C434 422.567 435.567 421 437.5 421 439.433 421 441 422.567 441 424.5 441 426.433 439.433 428 437.5 428 435.567 428 434 426.433 434 424.5Z" stroke="#000000" stroke-width="2" stroke-miterlimit="8" fill="#FFFFFF" fill-rule="evenodd"/><path d="M452.855 454C450.566 454 448.71 458.03 448.71 463 448.71 467.971 450.566 472 452.855 472L122.145 472C119.856 472 118 467.971 118 463 118 458.03 119.856 454 122.145 454Z" fill="#FFC000" fill-rule="evenodd"/><path d="M452.855 454C455.144 454 457 458.03 457 463 457 467.971 455.144 472 452.855 472 450.566 472 448.71 467.971 448.71 463 448.71 458.03 450.566 454 452.855 454Z" fill="#FFD966" fill-rule="evenodd"/><path d="M452.855 472C450.566 472 448.71 467.971 448.71 463 448.71 458.03 450.566 454 452.855 454 455.144 454 457 458.03 457 463 457 467.971 455.144 472 452.855 472ZM452.855 472 122.145 472C119.856 472 118 467.971 118 463 118 458.03 119.856 454 122.145 454L452.855 454" stroke="#000000" stroke-width="2" stroke-miterlimit="8" fill="none" fill-rule="evenodd"/><path d="M214 463C214 460.791 215.567 459 217.5 459 219.433 459 221 460.791 221 463 221 465.209 219.433 467 217.5 467 215.567 467 214 465.209 214 463Z" stroke="#000000" stroke-width="2" stroke-miterlimit="8" fill="#FFFFFF" fill-rule="evenodd"/><path d="M291 463C291 460.791 292.567 459 294.5 459 296.433 459 298 460.791 298 463 298 465.209 296.433 467 294.5 467 292.567 467 291 465.209 291 463Z" stroke="#000000" stroke-width="2" stroke-miterlimit="8" fill-rule="evenodd"/><path d="M311 463C311 460.791 312.791 459 315 459 317.209 459 319 460.791 319 463 319 465.209 317.209 467 315 467 312.791 467 311 465.209 311 463Z" stroke="#000000" stroke-width="2" stroke-miterlimit="8" fill="#FFFFFF" fill-rule="evenodd"/><path d="M329 463C329 460.791 330.791 459 333 459 335.209 459 337 460.791 337 463 337 465.209 335.209 467 333 467 330.791 467 329 465.209 329 463Z" stroke="#000000" stroke-width="2" stroke-miterlimit="8" fill="#FFFFFF" fill-rule="evenodd"/><path d="M345 463C345 460.791 346.567 459 348.5 459 350.433 459 352 460.791 352 463 352 465.209 350.433 467 348.5 467 346.567 467 345 465.209 345 463Z" stroke="#000000" stroke-width="2" stroke-miterlimit="8" fill="#FFFFFF" fill-rule="evenodd"/><path d="M361 463C361 460.791 362.567 459 364.5 459 366.433 459 368 460.791 368 463 368 465.209 366.433 467 364.5 467 362.567 467 361 465.209 361 463Z" stroke="#000000" stroke-width="2" stroke-miterlimit="8" fill="#FFFFFF" fill-rule="evenodd"/><path d="M377 463C377 460.791 378.567 459 380.5 459 382.433 459 384 460.791 384 463 384 465.209 382.433 467 380.5 467 378.567 467 377 465.209 377 463Z" stroke="#000000" stroke-width="2" stroke-miterlimit="8" fill="#FFFFFF" fill-rule="evenodd"/><path d="M416 463C416 460.791 417.567 459 419.5 459 421.433 459 423 460.791 423 463 423 465.209 421.433 467 419.5 467 417.567 467 416 465.209 416 463Z" stroke="#000000" stroke-width="2" stroke-miterlimit="8" fill="#FFFFFF" fill-rule="evenodd"/><path d="M434 463C434 460.791 435.567 459 437.5 459 439.433 459 441 460.791 441 463 441 465.209 439.433 467 437.5 467 435.567 467 434 465.209 434 463Z" stroke="#000000" stroke-width="2" stroke-miterlimit="8" fill="#FFFFFF" fill-rule="evenodd"/><path d="M452.855 492C450.566 492 448.71 496.03 448.71 501 448.71 505.971 450.566 510 452.855 510L122.145 510C119.856 510 118 505.971 118 501 118 496.03 119.856 492 122.145 492Z" fill="#FFC000" fill-rule="evenodd"/><path d="M452.855 492C455.144 492 457 496.03 457 501 457 505.971 455.144 510 452.855 510 450.566 510 448.71 505.971 448.71 501 448.71 496.03 450.566 492 452.855 492Z" fill="#FFD966" fill-rule="evenodd"/><path d="M452.855 510C450.566 510 448.71 505.971 448.71 501 448.71 496.03 450.566 492 452.855 492 455.144 492 457 496.03 457 501 457 505.971 455.144 510 452.855 510ZM452.855 510 122.145 510C119.856 510 118 505.971 118 501 118 496.03 119.856 492 122.145 492L452.855 492" stroke="#000000" stroke-width="2" stroke-miterlimit="8" fill="none" fill-rule="evenodd"/><path d="M214 501C214 498.791 215.567 497 217.5 497 219.433 497 221 498.791 221 501 221 503.209 219.433 505 217.5 505 215.567 505 214 503.209 214 501Z" stroke="#000000" stroke-width="2" stroke-miterlimit="8" fill="#FFFFFF" fill-rule="evenodd"/><path d="M291 501C291 498.791 292.567 497 294.5 497 296.433 497 298 498.791 298 501 298 503.209 296.433 505 294.5 505 292.567 505 291 503.209 291 501Z" stroke="#000000" stroke-width="2" stroke-miterlimit="8" fill="#FFFFFF" fill-rule="evenodd"/><path d="M311 501C311 498.791 312.791 497 315 497 317.209 497 319 498.791 319 501 319 503.209 317.209 505 315 505 312.791 505 311 503.209 311 501Z" stroke="#000000" stroke-width="2" stroke-miterlimit="8" fill-rule="evenodd"/><path d="M329 501C329 498.791 330.791 497 333 497 335.209 497 337 498.791 337 501 337 503.209 335.209 505 333 505 330.791 505 329 503.209 329 501Z" stroke="#000000" stroke-width="2" stroke-miterlimit="8" fill-rule="evenodd"/><path d="M345 501C345 498.791 346.567 497 348.5 497 350.433 497 352 498.791 352 501 352 503.209 350.433 505 348.5 505 346.567 505 345 503.209 345 501Z" stroke="#000000" stroke-width="2" stroke-miterlimit="8" fill="#FFFFFF" fill-rule="evenodd"/><path d="M361 501C361 498.791 362.567 497 364.5 497 366.433 497 368 498.791 368 501 368 503.209 366.433 505 364.5 505 362.567 505 361 503.209 361 501Z" stroke="#000000" stroke-width="2" stroke-miterlimit="8" fill="#FFFFFF" fill-rule="evenodd"/><path d="M377 501C377 498.791 378.567 497 380.5 497 382.433 497 384 498.791 384 501 384 503.209 382.433 505 380.5 505 378.567 505 377 503.209 377 501Z" stroke="#000000" stroke-width="2" stroke-miterlimit="8" fill="#FFFFFF" fill-rule="evenodd"/><path d="M416 501C416 498.791 417.567 497 419.5 497 421.433 497 423 498.791 423 501 423 503.209 421.433 505 419.5 505 417.567 505 416 503.209 416 501Z" stroke="#000000" stroke-width="2" stroke-miterlimit="8" fill="#FFFFFF" fill-rule="evenodd"/><path d="M434 501C434 498.791 435.567 497 437.5 497 439.433 497 441 498.791 441 501 441 503.209 439.433 505 437.5 505 435.567 505 434 503.209 434 501Z" stroke="#000000" stroke-width="2" stroke-miterlimit="8" fill="#FFFFFF" fill-rule="evenodd"/><path d="M452.855 531C450.566 531 448.71 535.029 448.71 540 448.71 544.971 450.566 549 452.855 549L122.145 549C119.856 549 118 544.971 118 540 118 535.029 119.856 531 122.145 531Z" fill="#FFC000" fill-rule="evenodd"/><path d="M452.855 531C455.144 531 457 535.029 457 540 457 544.971 455.144 549 452.855 549 450.566 549 448.71 544.971 448.71 540 448.71 535.029 450.566 531 452.855 531Z" fill="#FFD966" fill-rule="evenodd"/><path d="M452.855 549C450.566 549 448.71 544.971 448.71 540 448.71 535.029 450.566 531 452.855 531 455.144 531 457 535.029 457 540 457 544.971 455.144 549 452.855 549ZM452.855 549 122.145 549C119.856 549 118 544.971 118 540 118 535.029 119.856 531 122.145 531L452.855 531" stroke="#000000" stroke-width="2" stroke-miterlimit="8" fill="none" fill-rule="evenodd"/><path d="M214 540.5C214 538.567 215.567 537 217.5 537 219.433 537 221 538.567 221 540.5 221 542.433 219.433 544 217.5 544 215.567 544 214 542.433 214 540.5Z" stroke="#000000" stroke-width="2" stroke-miterlimit="8" fill="#FFFFFF" fill-rule="evenodd"/><path d="M291 540.5C291 538.567 292.567 537 294.5 537 296.433 537 298 538.567 298 540.5 298 542.433 296.433 544 294.5 544 292.567 544 291 542.433 291 540.5Z" stroke="#000000" stroke-width="2" stroke-miterlimit="8" fill="#FFFFFF" fill-rule="evenodd"/><path d="M311 540.5C311 538.567 312.791 537 315 537 317.209 537 319 538.567 319 540.5 319 542.433 317.209 544 315 544 312.791 544 311 542.433 311 540.5Z" stroke="#000000" stroke-width="2" stroke-miterlimit="8" fill-rule="evenodd"/><path d="M329 540.5C329 538.567 330.791 537 333 537 335.209 537 337 538.567 337 540.5 337 542.433 335.209 544 333 544 330.791 544 329 542.433 329 540.5Z" stroke="#000000" stroke-width="2" stroke-miterlimit="8" fill-rule="evenodd"/><path d="M345 540.5C345 538.567 346.567 537 348.5 537 350.433 537 352 538.567 352 540.5 352 542.433 350.433 544 348.5 544 346.567 544 345 542.433 345 540.5Z" stroke="#000000" stroke-width="2" stroke-miterlimit="8" fill-rule="evenodd"/><path d="M361 540.5C361 538.567 362.567 537 364.5 537 366.433 537 368 538.567 368 540.5 368 542.433 366.433 544 364.5 544 362.567 544 361 542.433 361 540.5Z" stroke="#000000" stroke-width="2" stroke-miterlimit="8" fill-rule="evenodd"/><path d="M377 540.5C377 538.567 378.567 537 380.5 537 382.433 537 384 538.567 384 540.5 384 542.433 382.433 544 380.5 544 378.567 544 377 542.433 377 540.5Z" stroke="#000000" stroke-width="2" stroke-miterlimit="8" fill-rule="evenodd"/><path d="M416 540.5C416 538.567 417.567 537 419.5 537 421.433 537 423 538.567 423 540.5 423 542.433 421.433 544 419.5 544 417.567 544 416 542.433 416 540.5Z" stroke="#000000" stroke-width="2" stroke-miterlimit="8" fill="#FFFFFF" fill-rule="evenodd"/><path d="M434 540.5C434 538.567 435.567 537 437.5 537 439.433 537 441 538.567 441 540.5 441 542.433 439.433 544 437.5 544 435.567 544 434 542.433 434 540.5Z" stroke="#000000" stroke-width="2" stroke-miterlimit="8" fill="#FFFFFF" fill-rule="evenodd"/><path d="M452.855 570C450.566 570 448.71 574.029 448.71 579 448.71 583.971 450.566 588 452.855 588L122.145 588C119.856 588 118 583.971 118 579 118 574.029 119.856 570 122.145 570Z" fill="#FFC000" fill-rule="evenodd"/><path d="M452.855 570C455.144 570 457 574.029 457 579 457 583.971 455.144 588 452.855 588 450.566 588 448.71 583.971 448.71 579 448.71 574.029 450.566 570 452.855 570Z" fill="#FFD966" fill-rule="evenodd"/><path d="M452.855 588C450.566 588 448.71 583.971 448.71 579 448.71 574.029 450.566 570 452.855 570 455.144 570 457 574.029 457 579 457 583.971 455.144 588 452.855 588ZM452.855 588 122.145 588C119.856 588 118 583.971 118 579 118 574.029 119.856 570 122.145 570L452.855 570" stroke="#000000" stroke-width="2" stroke-miterlimit="8" fill="none" fill-rule="evenodd"/><path d="M214 579.5C214 577.567 215.567 576 217.5 576 219.433 576 221 577.567 221 579.5 221 581.433 219.433 583 217.5 583 215.567 583 214 581.433 214 579.5Z" stroke="#000000" stroke-width="2" stroke-miterlimit="8" fill="#FFFFFF" fill-rule="evenodd"/><path d="M291 579.5C291 577.567 292.567 576 294.5 576 296.433 576 298 577.567 298 579.5 298 581.433 296.433 583 294.5 583 292.567 583 291 581.433 291 579.5Z" stroke="#000000" stroke-width="2" stroke-miterlimit="8" fill-rule="evenodd"/><path d="M311 579.5C311 577.567 312.791 576 315 576 317.209 576 319 577.567 319 579.5 319 581.433 317.209 583 315 583 312.791 583 311 581.433 311 579.5Z" stroke="#000000" stroke-width="2" stroke-miterlimit="8" fill-rule="evenodd"/><path d="M329 579.5C329 577.567 330.791 576 333 576 335.209 576 337 577.567 337 579.5 337 581.433 335.209 583 333 583 330.791 583 329 581.433 329 579.5Z" stroke="#000000" stroke-width="2" stroke-miterlimit="8" fill-rule="evenodd"/><path d="M345 579.5C345 577.567 346.567 576 348.5 576 350.433 576 352 577.567 352 579.5 352 581.433 350.433 583 348.5 583 346.567 583 345 581.433 345 579.5Z" stroke="#000000" stroke-width="2" stroke-miterlimit="8" fill-rule="evenodd"/><path d="M361 579.5C361 577.567 362.567 576 364.5 576 366.433 576 368 577.567 368 579.5 368 581.433 366.433 583 364.5 583 362.567 583 361 581.433 361 579.5Z" stroke="#000000" stroke-width="2" stroke-miterlimit="8" fill-rule="evenodd"/><path d="M377 579.5C377 577.567 378.567 576 380.5 576 382.433 576 384 577.567 384 579.5 384 581.433 382.433 583 380.5 583 378.567 583 377 581.433 377 579.5Z" stroke="#000000" stroke-width="2" stroke-miterlimit="8" fill-rule="evenodd"/><path d="M416 579.5C416 577.567 417.567 576 419.5 576 421.433 576 423 577.567 423 579.5 423 581.433 421.433 583 419.5 583 417.567 583 416 581.433 416 579.5Z" stroke="#000000" stroke-width="2" stroke-miterlimit="8" fill="#FFFFFF" fill-rule="evenodd"/><path d="M434 579.5C434 577.567 435.567 576 437.5 576 439.433 576 441 577.567 441 579.5 441 581.433 439.433 583 437.5 583 435.567 583 434 581.433 434 579.5Z" stroke="#000000" stroke-width="2" stroke-miterlimit="8" fill="#FFFFFF" fill-rule="evenodd"/><path d="M452.855 609C450.566 609 448.71 613.029 448.71 618 448.71 622.971 450.566 627 452.855 627L122.145 627C119.856 627 118 622.971 118 618 118 613.029 119.856 609 122.145 609Z" fill="#FFC000" fill-rule="evenodd"/><path d="M452.855 609C455.144 609 457 613.029 457 618 457 622.971 455.144 627 452.855 627 450.566 627 448.71 622.971 448.71 618 448.71 613.029 450.566 609 452.855 609Z" fill="#FFD966" fill-rule="evenodd"/><path d="M452.855 627C450.566 627 448.71 622.971 448.71 618 448.71 613.029 450.566 609 452.855 609 455.144 609 457 613.029 457 618 457 622.971 455.144 627 452.855 627ZM452.855 627 122.145 627C119.856 627 118 622.971 118 618 118 613.029 119.856 609 122.145 609L452.855 609" stroke="#000000" stroke-width="2" stroke-miterlimit="8" fill="none" fill-rule="evenodd"/><path d="M214 618C214 615.791 215.567 614 217.5 614 219.433 614 221 615.791 221 618 221 620.209 219.433 622 217.5 622 215.567 622 214 620.209 214 618Z" stroke="#000000" stroke-width="2" stroke-miterlimit="8" fill="#FFFFFF" fill-rule="evenodd"/><path d="M291 618C291 615.791 292.567 614 294.5 614 296.433 614 298 615.791 298 618 298 620.209 296.433 622 294.5 622 292.567 622 291 620.209 291 618Z" stroke="#000000" stroke-width="2" stroke-miterlimit="8" fill-rule="evenodd"/><path d="M311 618C311 615.791 312.791 614 315 614 317.209 614 319 615.791 319 618 319 620.209 317.209 622 315 622 312.791 622 311 620.209 311 618Z" stroke="#000000" stroke-width="2" stroke-miterlimit="8" fill-rule="evenodd"/><path d="M329 618C329 615.791 330.791 614 333 614 335.209 614 337 615.791 337 618 337 620.209 335.209 622 333 622 330.791 622 329 620.209 329 618Z" stroke="#000000" stroke-width="2" stroke-miterlimit="8" fill-rule="evenodd"/><path d="M345 618C345 615.791 346.567 614 348.5 614 350.433 614 352 615.791 352 618 352 620.209 350.433 622 348.5 622 346.567 622 345 620.209 345 618Z" stroke="#000000" stroke-width="2" stroke-miterlimit="8" fill-rule="evenodd"/><path d="M361 618C361 615.791 362.567 614 364.5 614 366.433 614 368 615.791 368 618 368 620.209 366.433 622 364.5 622 362.567 622 361 620.209 361 618Z" stroke="#000000" stroke-width="2" stroke-miterlimit="8" fill-rule="evenodd"/><path d="M377 618C377 615.791 378.567 614 380.5 614 382.433 614 384 615.791 384 618 384 620.209 382.433 622 380.5 622 378.567 622 377 620.209 377 618Z" stroke="#000000" stroke-width="2" stroke-miterlimit="8" fill="#FFFFFF" fill-rule="evenodd"/><path d="M416 618C416 615.791 417.567 614 419.5 614 421.433 614 423 615.791 423 618 423 620.209 421.433 622 419.5 622 417.567 622 416 620.209 416 618Z" stroke="#000000" stroke-width="2" stroke-miterlimit="8" fill="#FFFFFF" fill-rule="evenodd"/><path d="M434 618C434 615.791 435.567 614 437.5 614 439.433 614 441 615.791 441 618 441 620.209 439.433 622 437.5 622 435.567 622 434 620.209 434 618Z" stroke="#000000" stroke-width="2" stroke-miterlimit="8" fill="#FFFFFF" fill-rule="evenodd"/><path d="M452.625 647C450.209 647 448.25 651.253 448.25 656.5 448.25 661.747 450.209 666 452.625 666L122.375 666C119.959 666 118 661.747 118 656.5 118 651.253 119.959 647 122.375 647Z" fill="#FFC000" fill-rule="evenodd"/><path d="M452.625 647C455.041 647 457 651.253 457 656.5 457 661.747 455.041 666 452.625 666 450.209 666 448.25 661.747 448.25 656.5 448.25 651.253 450.209 647 452.625 647Z" fill="#FFD966" fill-rule="evenodd"/><path d="M452.625 666C450.209 666 448.25 661.747 448.25 656.5 448.25 651.253 450.209 647 452.625 647 455.041 647 457 651.253 457 656.5 457 661.747 455.041 666 452.625 666ZM452.625 666 122.375 666C119.959 666 118 661.747 118 656.5 118 651.253 119.959 647 122.375 647L452.625 647" stroke="#000000" stroke-width="2" stroke-miterlimit="8" fill="none" fill-rule="evenodd"/><path d="M214 656.5C214 654.567 215.567 653 217.5 653 219.433 653 221 654.567 221 656.5 221 658.433 219.433 660 217.5 660 215.567 660 214 658.433 214 656.5Z" stroke="#000000" stroke-width="2" stroke-miterlimit="8" fill="#FFFFFF" fill-rule="evenodd"/><path d="M291 656.5C291 654.567 292.567 653 294.5 653 296.433 653 298 654.567 298 656.5 298 658.433 296.433 660 294.5 660 292.567 660 291 658.433 291 656.5Z" stroke="#000000" stroke-width="2" stroke-miterlimit="8" fill-rule="evenodd"/><path d="M311 656.5C311 654.567 312.791 653 315 653 317.209 653 319 654.567 319 656.5 319 658.433 317.209 660 315 660 312.791 660 311 658.433 311 656.5Z" stroke="#000000" stroke-width="2" stroke-miterlimit="8" fill-rule="evenodd"/><path d="M329 656.5C329 654.567 330.791 653 333 653 335.209 653 337 654.567 337 656.5 337 658.433 335.209 660 333 660 330.791 660 329 658.433 329 656.5Z" stroke="#000000" stroke-width="2" stroke-miterlimit="8" fill-rule="evenodd"/><path d="M345 656.5C345 654.567 346.567 653 348.5 653 350.433 653 352 654.567 352 656.5 352 658.433 350.433 660 348.5 660 346.567 660 345 658.433 345 656.5Z" stroke="#000000" stroke-width="2" stroke-miterlimit="8" fill-rule="evenodd"/><path d="M361 656.5C361 654.567 362.567 653 364.5 653 366.433 653 368 654.567 368 656.5 368 658.433 366.433 660 364.5 660 362.567 660 361 658.433 361 656.5Z" stroke="#000000" stroke-width="2" stroke-miterlimit="8" fill="#FFFFFF" fill-rule="evenodd"/><path d="M377 656.5C377 654.567 378.567 653 380.5 653 382.433 653 384 654.567 384 656.5 384 658.433 382.433 660 380.5 660 378.567 660 377 658.433 377 656.5Z" stroke="#000000" stroke-width="2" stroke-miterlimit="8" fill="#FFFFFF" fill-rule="evenodd"/><path d="M416 656.5C416 654.567 417.567 653 419.5 653 421.433 653 423 654.567 423 656.5 423 658.433 421.433 660 419.5 660 417.567 660 416 658.433 416 656.5Z" stroke="#000000" stroke-width="2" stroke-miterlimit="8" fill="#FFFFFF" fill-rule="evenodd"/><path d="M434 656.5C434 654.567 435.567 653 437.5 653 439.433 653 441 654.567 441 656.5 441 658.433 439.433 660 437.5 660 435.567 660 434 658.433 434 656.5Z" stroke="#000000" stroke-width="2" stroke-miterlimit="8" fill="#FFFFFF" fill-rule="evenodd"/><path d="M452.855 687C450.566 687 448.71 691.029 448.71 696 448.71 700.971 450.566 705 452.855 705L122.145 705C119.856 705 118 700.971 118 696 118 691.029 119.856 687 122.145 687Z" fill="#FFC000" fill-rule="evenodd"/><path d="M452.855 687C455.144 687 457 691.029 457 696 457 700.971 455.144 705 452.855 705 450.566 705 448.71 700.971 448.71 696 448.71 691.029 450.566 687 452.855 687Z" fill="#FFD966" fill-rule="evenodd"/><path d="M452.855 705C450.566 705 448.71 700.971 448.71 696 448.71 691.029 450.566 687 452.855 687 455.144 687 457 691.029 457 696 457 700.971 455.144 705 452.855 705ZM452.855 705 122.145 705C119.856 705 118 700.971 118 696 118 691.029 119.856 687 122.145 687L452.855 687" stroke="#000000" stroke-width="2" stroke-miterlimit="8" fill="none" fill-rule="evenodd"/><path d="M214 695.5C214 693.567 215.567 692 217.5 692 219.433 692 221 693.567 221 695.5 221 697.433 219.433 699 217.5 699 215.567 699 214 697.433 214 695.5Z" stroke="#000000" stroke-width="2" stroke-miterlimit="8" fill="#FFFFFF" fill-rule="evenodd"/><path d="M291 695.5C291 693.567 292.567 692 294.5 692 296.433 692 298 693.567 298 695.5 298 697.433 296.433 699 294.5 699 292.567 699 291 697.433 291 695.5Z" stroke="#000000" stroke-width="2" stroke-miterlimit="8" fill-rule="evenodd"/><path d="M311 695.5C311 693.567 312.791 692 315 692 317.209 692 319 693.567 319 695.5 319 697.433 317.209 699 315 699 312.791 699 311 697.433 311 695.5Z" stroke="#000000" stroke-width="2" stroke-miterlimit="8" fill-rule="evenodd"/><path d="M329 695.5C329 693.567 330.791 692 333 692 335.209 692 337 693.567 337 695.5 337 697.433 335.209 699 333 699 330.791 699 329 697.433 329 695.5Z" stroke="#000000" stroke-width="2" stroke-miterlimit="8" fill-rule="evenodd"/><path d="M345 695.5C345 693.567 346.567 692 348.5 692 350.433 692 352 693.567 352 695.5 352 697.433 350.433 699 348.5 699 346.567 699 345 697.433 345 695.5Z" stroke="#000000" stroke-width="2" stroke-miterlimit="8" fill-rule="evenodd"/><path d="M361 695.5C361 693.567 362.567 692 364.5 692 366.433 692 368 693.567 368 695.5 368 697.433 366.433 699 364.5 699 362.567 699 361 697.433 361 695.5Z" stroke="#000000" stroke-width="2" stroke-miterlimit="8" fill-rule="evenodd"/><path d="M377 695.5C377 693.567 378.567 692 380.5 692 382.433 692 384 693.567 384 695.5 384 697.433 382.433 699 380.5 699 378.567 699 377 697.433 377 695.5Z" stroke="#000000" stroke-width="2" stroke-miterlimit="8" fill="#FFFFFF" fill-rule="evenodd"/><path d="M416 695.5C416 693.567 417.567 692 419.5 692 421.433 692 423 693.567 423 695.5 423 697.433 421.433 699 419.5 699 417.567 699 416 697.433 416 695.5Z" stroke="#000000" stroke-width="2" stroke-miterlimit="8" fill="#FFFFFF" fill-rule="evenodd"/><path d="M434 695.5C434 693.567 435.567 692 437.5 692 439.433 692 441 693.567 441 695.5 441 697.433 439.433 699 437.5 699 435.567 699 434 697.433 434 695.5Z" stroke="#000000" stroke-width="2" stroke-miterlimit="8" fill="#FFFFFF" fill-rule="evenodd"/><path d="M452.855 726C450.566 726 448.71 730.029 448.71 735 448.71 739.971 450.566 744 452.855 744L122.145 744C119.856 744 118 739.971 118 735 118 730.029 119.856 726 122.145 726Z" fill="#FFC000" fill-rule="evenodd"/><path d="M452.855 726C455.144 726 457 730.029 457 735 457 739.971 455.144 744 452.855 744 450.566 744 448.71 739.971 448.71 735 448.71 730.029 450.566 726 452.855 726Z" fill="#FFD966" fill-rule="evenodd"/><path d="M452.855 744C450.566 744 448.71 739.971 448.71 735 448.71 730.029 450.566 726 452.855 726 455.144 726 457 730.029 457 735 457 739.971 455.144 744 452.855 744ZM452.855 744 122.145 744C119.856 744 118 739.971 118 735 118 730.029 119.856 726 122.145 726L452.855 726" stroke="#000000" stroke-width="2" stroke-miterlimit="8" fill="none" fill-rule="evenodd"/><path d="M214 735.5C214 733.567 215.567 732 217.5 732 219.433 732 221 733.567 221 735.5 221 737.433 219.433 739 217.5 739 215.567 739 214 737.433 214 735.5Z" stroke="#000000" stroke-width="2" stroke-miterlimit="8" fill="#FFFFFF" fill-rule="evenodd"/><path d="M291 735.5C291 733.567 292.567 732 294.5 732 296.433 732 298 733.567 298 735.5 298 737.433 296.433 739 294.5 739 292.567 739 291 737.433 291 735.5Z" stroke="#000000" stroke-width="2" stroke-miterlimit="8" fill-rule="evenodd"/><path d="M311 735.5C311 733.567 312.791 732 315 732 317.209 732 319 733.567 319 735.5 319 737.433 317.209 739 315 739 312.791 739 311 737.433 311 735.5Z" stroke="#000000" stroke-width="2" stroke-miterlimit="8" fill-rule="evenodd"/><path d="M329 735.5C329 733.567 330.791 732 333 732 335.209 732 337 733.567 337 735.5 337 737.433 335.209 739 333 739 330.791 739 329 737.433 329 735.5Z" stroke="#000000" stroke-width="2" stroke-miterlimit="8" fill-rule="evenodd"/><path d="M345 735.5C345 733.567 346.567 732 348.5 732 350.433 732 352 733.567 352 735.5 352 737.433 350.433 739 348.5 739 346.567 739 345 737.433 345 735.5Z" stroke="#000000" stroke-width="2" stroke-miterlimit="8" fill-rule="evenodd"/><path d="M361 735.5C361 733.567 362.567 732 364.5 732 366.433 732 368 733.567 368 735.5 368 737.433 366.433 739 364.5 739 362.567 739 361 737.433 361 735.5Z" stroke="#000000" stroke-width="2" stroke-miterlimit="8" fill-rule="evenodd"/><path d="M377 735.5C377 733.567 378.567 732 380.5 732 382.433 732 384 733.567 384 735.5 384 737.433 382.433 739 380.5 739 378.567 739 377 737.433 377 735.5Z" stroke="#000000" stroke-width="2" stroke-miterlimit="8" fill="#FFFFFF" fill-rule="evenodd"/><path d="M416 735.5C416 733.567 417.567 732 419.5 732 421.433 732 423 733.567 423 735.5 423 737.433 421.433 739 419.5 739 417.567 739 416 737.433 416 735.5Z" stroke="#000000" stroke-width="2" stroke-miterlimit="8" fill="#FFFFFF" fill-rule="evenodd"/><path d="M434 735.5C434 733.567 435.567 732 437.5 732 439.433 732 441 733.567 441 735.5 441 737.433 439.433 739 437.5 739 435.567 739 434 737.433 434 735.5Z" stroke="#000000" stroke-width="2" stroke-miterlimit="8" fill="#FFFFFF" fill-rule="evenodd"/><path d="M452.855 765C450.566 765 448.71 769.029 448.71 774 448.71 778.971 450.566 783 452.855 783L122.145 783C119.856 783 118 778.971 118 774 118 769.029 119.856 765 122.145 765Z" fill="#FFC000" fill-rule="evenodd"/><path d="M452.855 765C455.144 765 457 769.029 457 774 457 778.971 455.144 783 452.855 783 450.566 783 448.71 778.971 448.71 774 448.71 769.029 450.566 765 452.855 765Z" fill="#FFD966" fill-rule="evenodd"/><path d="M452.855 783C450.566 783 448.71 778.971 448.71 774 448.71 769.029 450.566 765 452.855 765 455.144 765 457 769.029 457 774 457 778.971 455.144 783 452.855 783ZM452.855 783 122.145 783C119.856 783 118 778.971 118 774 118 769.029 119.856 765 122.145 765L452.855 765" stroke="#000000" stroke-width="2" stroke-miterlimit="8" fill="none" fill-rule="evenodd"/><path d="M214 774C214 771.791 215.567 770 217.5 770 219.433 770 221 771.791 221 774 221 776.209 219.433 778 217.5 778 215.567 778 214 776.209 214 774Z" stroke="#000000" stroke-width="2" stroke-miterlimit="8" fill="#FFFFFF" fill-rule="evenodd"/><path d="M291 774C291 771.791 292.567 770 294.5 770 296.433 770 298 771.791 298 774 298 776.209 296.433 778 294.5 778 292.567 778 291 776.209 291 774Z" stroke="#000000" stroke-width="2" stroke-miterlimit="8" fill-rule="evenodd"/><path d="M311 774C311 771.791 312.791 770 315 770 317.209 770 319 771.791 319 774 319 776.209 317.209 778 315 778 312.791 778 311 776.209 311 774Z" stroke="#000000" stroke-width="2" stroke-miterlimit="8" fill-rule="evenodd"/><path d="M329 774C329 771.791 330.791 770 333 770 335.209 770 337 771.791 337 774 337 776.209 335.209 778 333 778 330.791 778 329 776.209 329 774Z" stroke="#000000" stroke-width="2" stroke-miterlimit="8" fill-rule="evenodd"/><path d="M345 774C345 771.791 346.567 770 348.5 770 350.433 770 352 771.791 352 774 352 776.209 350.433 778 348.5 778 346.567 778 345 776.209 345 774Z" stroke="#000000" stroke-width="2" stroke-miterlimit="8" fill-rule="evenodd"/><path d="M361 774C361 771.791 362.567 770 364.5 770 366.433 770 368 771.791 368 774 368 776.209 366.433 778 364.5 778 362.567 778 361 776.209 361 774Z" stroke="#000000" stroke-width="2" stroke-miterlimit="8" fill-rule="evenodd"/><path d="M377 774C377 771.791 378.567 770 380.5 770 382.433 770 384 771.791 384 774 384 776.209 382.433 778 380.5 778 378.567 778 377 776.209 377 774Z" stroke="#000000" stroke-width="2" stroke-miterlimit="8" fill="#FFFFFF" fill-rule="evenodd"/><path d="M416 774C416 771.791 417.567 770 419.5 770 421.433 770 423 771.791 423 774 423 776.209 421.433 778 419.5 778 417.567 778 416 776.209 416 774Z" stroke="#000000" stroke-width="2" stroke-miterlimit="8" fill="#FFFFFF" fill-rule="evenodd"/><path d="M434 774C434 771.791 435.567 770 437.5 770 439.433 770 441 771.791 441 774 441 776.209 439.433 778 437.5 778 435.567 778 434 776.209 434 774Z" stroke="#000000" stroke-width="2" stroke-miterlimit="8" fill="#FFFFFF" fill-rule="evenodd"/><path d="M452.855 803C450.566 803 448.71 807.029 448.71 812 448.71 816.971 450.566 821 452.855 821L122.145 821C119.856 821 118 816.971 118 812 118 807.029 119.856 803 122.145 803Z" fill="#FFC000" fill-rule="evenodd"/><path d="M452.855 803C455.144 803 457 807.029 457 812 457 816.971 455.144 821 452.855 821 450.566 821 448.71 816.971 448.71 812 448.71 807.029 450.566 803 452.855 803Z" fill="#FFD966" fill-rule="evenodd"/><path d="M452.855 821C450.566 821 448.71 816.971 448.71 812 448.71 807.029 450.566 803 452.855 803 455.144 803 457 807.029 457 812 457 816.971 455.144 821 452.855 821ZM452.855 821 122.145 821C119.856 821 118 816.971 118 812 118 807.029 119.856 803 122.145 803L452.855 803" stroke="#000000" stroke-width="2" stroke-miterlimit="8" fill="none" fill-rule="evenodd"/><path d="M214 812C214 809.791 215.567 808 217.5 808 219.433 808 221 809.791 221 812 221 814.209 219.433 816 217.5 816 215.567 816 214 814.209 214 812Z" stroke="#000000" stroke-width="2" stroke-miterlimit="8" fill="#FFFFFF" fill-rule="evenodd"/><path d="M291 812C291 809.791 292.567 808 294.5 808 296.433 808 298 809.791 298 812 298 814.209 296.433 816 294.5 816 292.567 816 291 814.209 291 812Z" stroke="#000000" stroke-width="2" stroke-miterlimit="8" fill-rule="evenodd"/><path d="M311 812C311 809.791 312.791 808 315 808 317.209 808 319 809.791 319 812 319 814.209 317.209 816 315 816 312.791 816 311 814.209 311 812Z" stroke="#000000" stroke-width="2" stroke-miterlimit="8" fill-rule="evenodd"/><path d="M329 812C329 809.791 330.791 808 333 808 335.209 808 337 809.791 337 812 337 814.209 335.209 816 333 816 330.791 816 329 814.209 329 812Z" stroke="#000000" stroke-width="2" stroke-miterlimit="8" fill-rule="evenodd"/><path d="M345 812C345 809.791 346.567 808 348.5 808 350.433 808 352 809.791 352 812 352 814.209 350.433 816 348.5 816 346.567 816 345 814.209 345 812Z" stroke="#000000" stroke-width="2" stroke-miterlimit="8" fill-rule="evenodd"/><path d="M361 812C361 809.791 362.567 808 364.5 808 366.433 808 368 809.791 368 812 368 814.209 366.433 816 364.5 816 362.567 816 361 814.209 361 812Z" stroke="#000000" stroke-width="2" stroke-miterlimit="8" fill-rule="evenodd"/><path d="M377 812C377 809.791 378.567 808 380.5 808 382.433 808 384 809.791 384 812 384 814.209 382.433 816 380.5 816 378.567 816 377 814.209 377 812Z" stroke="#000000" stroke-width="2" stroke-miterlimit="8" fill="#FFFFFF" fill-rule="evenodd"/><path d="M416 812C416 809.791 417.567 808 419.5 808 421.433 808 423 809.791 423 812 423 814.209 421.433 816 419.5 816 417.567 816 416 814.209 416 812Z" stroke="#000000" stroke-width="2" stroke-miterlimit="8" fill="#FFFFFF" fill-rule="evenodd"/><path d="M434 812C434 809.791 435.567 808 437.5 808 439.433 808 441 809.791 441 812 441 814.209 439.433 816 437.5 816 435.567 816 434 814.209 434 812Z" stroke="#000000" stroke-width="2" stroke-miterlimit="8" fill="#FFFFFF" fill-rule="evenodd"/><path d="M452.855 842C450.566 842 448.71 846.029 448.71 851 448.71 855.971 450.566 860 452.855 860L122.145 860C119.856 860 118 855.971 118 851 118 846.029 119.856 842 122.145 842Z" fill="#FFC000" fill-rule="evenodd"/><path d="M452.855 842C455.144 842 457 846.029 457 851 457 855.971 455.144 860 452.855 860 450.566 860 448.71 855.971 448.71 851 448.71 846.029 450.566 842 452.855 842Z" fill="#FFD966" fill-rule="evenodd"/><path d="M452.855 860C450.566 860 448.71 855.971 448.71 851 448.71 846.029 450.566 842 452.855 842 455.144 842 457 846.029 457 851 457 855.971 455.144 860 452.855 860ZM452.855 860 122.145 860C119.856 860 118 855.971 118 851 118 846.029 119.856 842 122.145 842L452.855 842" stroke="#000000" stroke-width="2" stroke-miterlimit="8" fill="none" fill-rule="evenodd"/><path d="M214 851.5C214 849.567 215.567 848 217.5 848 219.433 848 221 849.567 221 851.5 221 853.433 219.433 855 217.5 855 215.567 855 214 853.433 214 851.5Z" stroke="#000000" stroke-width="2" stroke-miterlimit="8" fill="#FFFFFF" fill-rule="evenodd"/><path d="M291 851.5C291 849.567 292.567 848 294.5 848 296.433 848 298 849.567 298 851.5 298 853.433 296.433 855 294.5 855 292.567 855 291 853.433 291 851.5Z" stroke="#000000" stroke-width="2" stroke-miterlimit="8" fill-rule="evenodd"/><path d="M311 851.5C311 849.567 312.791 848 315 848 317.209 848 319 849.567 319 851.5 319 853.433 317.209 855 315 855 312.791 855 311 853.433 311 851.5Z" stroke="#000000" stroke-width="2" stroke-miterlimit="8" fill-rule="evenodd"/><path d="M329 851.5C329 849.567 330.791 848 333 848 335.209 848 337 849.567 337 851.5 337 853.433 335.209 855 333 855 330.791 855 329 853.433 329 851.5Z" stroke="#000000" stroke-width="2" stroke-miterlimit="8" fill-rule="evenodd"/><path d="M345 851.5C345 849.567 346.567 848 348.5 848 350.433 848 352 849.567 352 851.5 352 853.433 350.433 855 348.5 855 346.567 855 345 853.433 345 851.5Z" stroke="#000000" stroke-width="2" stroke-miterlimit="8" fill-rule="evenodd"/><path d="M361 851.5C361 849.567 362.567 848 364.5 848 366.433 848 368 849.567 368 851.5 368 853.433 366.433 855 364.5 855 362.567 855 361 853.433 361 851.5Z" stroke="#000000" stroke-width="2" stroke-miterlimit="8" fill-rule="evenodd"/><path d="M377 851.5C377 849.567 378.567 848 380.5 848 382.433 848 384 849.567 384 851.5 384 853.433 382.433 855 380.5 855 378.567 855 377 853.433 377 851.5Z" stroke="#000000" stroke-width="2" stroke-miterlimit="8" fill-rule="evenodd"/><path d="M416 851.5C416 849.567 417.567 848 419.5 848 421.433 848 423 849.567 423 851.5 423 853.433 421.433 855 419.5 855 417.567 855 416 853.433 416 851.5Z" stroke="#000000" stroke-width="2" stroke-miterlimit="8" fill="#FFFFFF" fill-rule="evenodd"/><path d="M434 851.5C434 849.567 435.567 848 437.5 848 439.433 848 441 849.567 441 851.5 441 853.433 439.433 855 437.5 855 435.567 855 434 853.433 434 851.5Z" stroke="#000000" stroke-width="2" stroke-miterlimit="8" fill="#FFFFFF" fill-rule="evenodd"/><path d="M295 459C296.657 459 298 460.791 298 463 298 465.209 296.657 467 295 467Z" fill="#FFFFFF" fill-rule="evenodd"/></g></svg>